<?xml version="1.0" encoding="UTF-8"?>
<!-- Generated by Pixelmator Pro 4.0 -->
<svg width="16" height="16" viewBox="0 0 16 16" xmlns="http://www.w3.org/2000/svg">
    <path id="Path" fill="#000000" stroke="none" d="M 9.5 12.751913 C 9.500345 13.896059 10.359278 14.857762 11.496118 14.986864 C 12.632957 15.115966 13.685661 14.371352 13.942553 13.256418 C 14.199444 12.141484 13.578712 11.011295 12.5 10.629913 L 12.5 10.001913 C 12.5 8.621201 11.380712 7.501913 10 7.501913 L 6 7.501913 C 5.447715 7.501913 5 7.054198 5 6.501913 L 5 5.373913 C 6.03374 5.008614 6.653928 3.951669 6.468612 2.871058 C 6.283296 1.790447 5.346385 1.000532 4.25 1.000532 C 3.153615 1.000532 2.216704 1.790447 2.031388 2.871058 C 1.846072 3.951669 2.46626 5.008614 3.5 5.373913 L 3.5 10.629913 C 2.46684 10.99519 1.847096 12.051662 2.032403 13.131713 C 2.21771 14.211763 3.154168 15.001233 4.25 15.001233 C 5.345832 15.001233 6.28229 14.211763 6.467597 13.131713 C 6.652904 12.051662 6.03316 10.99519 5 10.629913 L 5 8.793913 C 5.315405 8.93152 5.655884 9.002339 6 9.001913 L 10 9.001913 C 10.552285 9.001913 11 9.449629 11 10.001913 L 11 10.629913 C 10.100785 10.947834 9.499712 11.798152 9.5 12.751913 Z M 3.5 12.751913 C 3.5 12.3377 3.835786 12.001913 4.25 12.001913 C 4.664214 12.001913 5 12.3377 5 12.751913 C 5 13.166126 4.664214 13.501913 4.25 13.501913 C 3.835786 13.501913 3.5 13.166126 3.5 12.751913 Z M 11.75 13.501913 C 11.335787 13.501913 11 13.166126 11 12.751913 C 11 12.3377 11.335787 12.001913 11.75 12.001913 C 12.164213 12.001913 12.5 12.3377 12.5 12.751913 C 12.5 13.166126 12.164213 13.501913 11.75 13.501913 Z M 4.25 4.001913 C 3.835786 4.001913 3.5 3.666126 3.5 3.251913 C 3.5 2.8377 3.835786 2.501913 4.25 2.501913 C 4.664214 2.501913 5 2.8377 5 3.251913 C 5 3.666126 4.664214 4.001913 4.25 4.001913 Z"/>
</svg>
